<?xml version="1.0" encoding="iso-8859-1"?>
<!-- Generator: Adobe Illustrator 19.0.0, SVG Export Plug-In . SVG Version: 6.00 Build 0)  -->
<svg version="1.1" id="Capa_1" xmlns="http://www.w3.org/2000/svg" xmlns:xlink="http://www.w3.org/1999/xlink" x="0px" y="0px"
	 viewBox="0 0 464 464" style="enable-background:new 0 0 464 464;" xml:space="preserve">
<g>
	<path style="fill:#82574A;" d="M253.456,242.967c-4.499-56.846-12.521-118.363-26.799-150.003l-8.927-7.351
		c-4.458-2.363-8.708-1.988-11.186,0.149l-0.448,0.544c14.789,35.071,18.338,100.11,18.052,157.994
		C228.808,241.579,234.203,240,240,240C244.808,240,249.365,241.067,253.456,242.967z"/>
	<path style="fill:#82574A;" d="M248.506,352.773c3.419-0.272,6.875-0.476,10.366-0.604c-0.387-17.155-1.297-46.614-3.375-80.169
		h-31.763c-0.886,36.007-2.912,66.24-3.949,80.024c1.402-0.015,2.807-0.024,4.216-0.024
		C232.312,352,240.491,352.266,248.506,352.773z"/>
	<path style="fill:#FFB996;" d="M224,352c8.15,0,16.127,0.324,23.991,0.816c0.172-0.014,0.343-0.029,0.515-0.042
		C240.491,352.266,232.312,352,224,352z"/>
	<path style="fill:#FFDEB4;" d="M247.991,352.816c0.171,0.011,0.344,0.019,0.515,0.03c-50.671,4.041-93.02,23.531-112.892,50.204
		c3.134,2.26,5.701,4.951,11.811,4.951c10.547,0,10.547-8,21.093-8c10.535,0,10.535,8,21.07,8c10.547,0,10.547-8,21.094-8
		c10.541,0,10.541,8,21.083,8c10.551,0,10.551-8,21.103-8c10.545,0,10.545,8,21.09,8c10.55,0,10.55-8,21.1-8
		c10.555,0,10.555,8,21.109,8c10.532,0,10.532-8,21.064-8c10.546,0,10.546,8,21.092,8c10.558,0,10.558-8,21.116-8
		c10.56,0,10.56,8,21.119,8c1.136,0,2.144-0.097,3.062-0.262C383.236,375.198,330.208,352,268,352c-3.066,0-6.109,0.058-9.128,0.169
		c-3.491,0.128-6.947,0.332-10.366,0.604C248.334,352.787,248.163,352.802,247.991,352.816z"/>
	<path style="fill:#FFC986;" d="M63.151,408c10.539,0,10.539-8,21.077-8c10.537,0,10.537,8,21.073,8c10.527,0,10.527-8,21.055-8
		c4.424,0,6.989,1.412,9.258,3.049c19.872-26.673,62.221-46.163,112.892-50.204c-0.171-0.011-0.344-0.019-0.515-0.03
		C240.127,352.324,232.15,352,224,352c-1.409,0-2.814,0.009-4.216,0.024c-6.494,0.069-12.904,0.298-19.212,0.679
		c-49.854,3.013-93.381,15.513-122.107,33.519c-0.737,0.462-1.463,0.927-2.18,1.396c-5.019,3.282-9.553,6.738-13.556,10.346
		c-1.715,1.546-3.332,3.12-4.848,4.72c-0.966,1.019-1.887,2.05-2.769,3.089C57.11,407.033,59.495,408,63.151,408z"/>
	<path style="fill:#8CE696;" d="M217.73,85.613l8.927,7.351l120.49,99.227c0-23.734-5.693-42.443-14.747-57.191H296
		c0-10.902,8.447-19.811,19.151-20.59c-29.43-26.421-71.501-32.496-91.93-33.852L360,67.322
		c-53.376-53.376-112.382-16.079-136.727,3.919c29.394-49.392,67.874-63.081,67.874-63.081
		c-42.961-11.96-65.044,9.097-75.292,33.012c-8.947-22.403-30.605-43.302-76.709-40.997c0,0,35.202,17.468,63.141,69.772
		c-25.258-20.246-82.906-54.861-135.141-2.625l135.911,13.153c-107.66,6.221-103.911,135.7-103.911,135.7l106.95-129.868
		l0.448-0.544C209.022,83.625,213.272,83.25,217.73,85.613z"/>
	<path style="fill:#CCEFFC;" d="M296,135h36.4h46.267c0-17.121-13.879-31-31-31c-9.749,0-18.339,4.59-24.022,11.626
		c-2.189-0.79-4.517-1.293-6.978-1.293c-0.512,0-1.014,0.04-1.516,0.077C304.447,115.189,296,124.098,296,135z"/>
	<path style="fill:#CCEFFC;" d="M189,168c-8.491,0-15.973,3.998-20.922,10.126C166.171,177.438,164.143,177,162,177
		c-9.941,0-18,8.058-18,18h72C216,180.088,203.912,168,189,168z"/>
	<path style="fill:#9EDCF1;" d="M272,272c0-12.865-7.596-23.95-18.544-29.033c-4.092-1.9-8.648-2.967-13.456-2.967
		c-5.797,0-11.192,1.579-15.85,4.301c-3.428,2.003-6.459,4.622-8.946,7.701c-2.26-0.815-4.663-1.335-7.203-1.335
		c-7.009,0-13.209,3.395-17.098,8.614c4.248,3.579,7.862,7.883,10.661,12.719h22.171h31.763H272z"/>
	<path style="fill:#9EDCF1;" d="M325.72,295.418c-2.683-0.968-5.537-1.585-8.554-1.585c-13.991,0-25.333,11.342-25.333,25.333
		h101.333c0-20.987-17.013-38-38-38C343.217,281.167,332.687,286.793,325.72,295.418z"/>
	<path style="fill:#CCEFFC;" d="M190.902,259.281C182.551,252.246,171.774,248,160,248c-15.095,0-28.396,7.107-37.195,18.002
		C119.415,264.779,115.811,264,112,264c-17.673,0-32,14.326-32,32h128c0-8.746-2.351-16.938-6.438-24
		C198.764,267.163,195.15,262.86,190.902,259.281z"/>
	<path style="fill:#95DCEC;" d="M461.858,443.51c-0.546,1.416-1.188,2.783-1.921,4.093
		C460.67,446.292,461.312,444.925,461.858,443.51z"/>
	<path style="fill:#95DCEC;" d="M458.172,450.401c-0.721,1.024-1.497,2.005-2.33,2.936
		C456.676,452.406,457.452,451.425,458.172,450.401z"/>
	<path style="fill:#95DCEC;" d="M445.233,461.134c-0.544,0.248-1.097,0.48-1.657,0.698
		C444.136,461.615,444.688,461.382,445.233,461.134z"/>
	<path style="fill:#95DCEC;" d="M454.627,454.627c-2.348,2.348-5.064,4.325-8.047,5.855
		C449.563,458.952,452.279,456.976,454.627,454.627z"/>
	<path style="fill:#95DCEC;" d="M464,432c0,1.104-0.056,2.196-0.165,3.272C463.944,434.196,464,433.104,464,432z"/>
	<path style="fill:#95DCEC;" d="M463.835,435.272c-0.246,2.427-0.773,4.769-1.531,7.004
		C463.062,440.04,463.588,437.698,463.835,435.272z"/>
	<path style="fill:#95DCEC;" d="M2.804,445.097c-0.234-0.522-0.456-1.051-0.663-1.587C2.349,444.046,2.57,444.575,2.804,445.097z"/>
	<path style="fill:#95DCEC;" d="M442.842,408c-10.579,0-10.579-8-21.158-8c-9.426,0-10.446,6.367-18.063,7.738
		c-0.918,0.165-1.926,0.262-3.062,0.262c-10.559,0-10.559-8-21.119-8c-10.558,0-10.558,8-21.116,8c-10.546,0-10.546-8-21.092-8
		c-10.532,0-10.532,8-21.064,8c-10.555,0-10.555-8-21.109-8c-10.55,0-10.55,8-21.1,8c-10.545,0-10.545-8-21.09-8
		c-10.551,0-10.551,8-21.103,8c-10.541,0-10.541-8-21.083-8c-10.547,0-10.547,8-21.094,8c-10.535,0-10.535-8-21.07-8
		c-10.547,0-10.547,8-21.093,8c-6.11,0-8.678-2.691-11.811-4.951c-2.269-1.637-4.834-3.049-9.258-3.049c-10.527,0-10.527,8-21.055,8
		c-10.537,0-10.537-8-21.073-8c-10.539,0-10.539,8-21.077,8c-3.656,0-6.041-0.967-8.039-2.228C51.36,403.405,48.974,400,42.108,400
		c-10.517,0-10.517,8-21.033,8c-10.538,0-10.538-8-21.075-8v24c10.538,0,10.538,8,21.075,8c10.517,0,10.517-8,21.033-8
		c10.521,0,10.521,8,21.043,8c10.539,0,10.539-8,21.077-8c10.537,0,10.537,8,21.073,8c10.527,0,10.527-8,21.055-8
		c10.535,0,10.535,8,21.069,8c10.546,0,10.546-8,21.093-8c10.535,0,10.535,8,21.069,8c10.547,0,10.547-8,21.095-8
		c10.541,0,10.541,8,21.083,8c10.551,0,10.551-8,21.103-8c10.545,0,10.545,8,21.089,8c10.55,0,10.55-8,21.101-8
		c10.555,0,10.555,8,21.109,8c10.532,0,10.532-8,21.064-8c10.546,0,10.546,8,21.092,8c10.558,0,10.558-8,21.116-8
		c10.56,0,10.56,8,21.119,8c10.563,0,10.563-8,21.125-8c10.579,0,10.579,8,21.159,8c10.579,0,10.579-8,21.158-8v-24
		C453.421,400,453.421,408,442.842,408z"/>
	<path style="fill:#95DCEC;" d="M0.165,435.272C0.056,434.196,0,433.104,0,432C0,433.104,0.056,434.196,0.165,435.272z"/>
	<path style="fill:#95DCEC;" d="M4.063,447.603c-0.078-0.139-0.159-0.275-0.234-0.415C3.904,447.328,3.985,447.464,4.063,447.603z"
		/>
	<path style="fill:#95DCEC;" d="M7.702,452.811c-0.321-0.375-0.634-0.757-0.938-1.147C7.068,452.053,7.381,452.436,7.702,452.811z"
		/>
	<path style="fill:#95DCEC;" d="M20.051,461.685c-0.215-0.087-0.431-0.17-0.643-0.261C19.621,461.515,19.837,461.599,20.051,461.685
		z"/>
	<path style="fill:#95DCEC;" d="M1.696,442.276c-0.758-2.236-1.284-4.578-1.531-7.004C0.412,437.698,0.938,440.04,1.696,442.276z"/>
	<path style="fill:#95DCEC;" d="M13.363,458.005c-0.65-0.467-1.285-0.954-1.898-1.468C12.078,457.051,12.713,457.538,13.363,458.005
		z"/>
	<path style="fill:#95DCEC;" d="M17.192,460.366c-0.486-0.254-0.965-0.52-1.436-0.798C16.227,459.846,16.706,460.112,17.192,460.366
		z"/>
	<path style="fill:#82C8DC;" d="M421.683,424c-10.562,0-10.562,8-21.125,8c-10.56,0-10.56-8-21.119-8c-10.558,0-10.558,8-21.116,8
		c-10.546,0-10.546-8-21.092-8c-10.532,0-10.532,8-21.064,8c-10.554,0-10.554-8-21.109-8c-10.55,0-10.55,8-21.101,8
		c-10.544,0-10.544-8-21.089-8c-10.551,0-10.551,8-21.103,8c-10.542,0-10.542-8-21.083-8c-10.547,0-10.547,8-21.095,8
		c-10.535,0-10.535-8-21.069-8c-10.547,0-10.547,8-21.093,8c-10.535,0-10.535-8-21.069-8c-10.527,0-10.527,8-21.055,8
		c-10.537,0-10.537-8-21.073-8c-10.539,0-10.539,8-21.077,8c-10.521,0-10.521-8-21.043-8c-10.517,0-10.517,8-21.033,8
		c-10.538,0-10.538-8-21.075-8v8c0,1.104,0.056,2.196,0.165,3.272c0.247,2.427,0.773,4.769,1.531,7.004
		c0.141,0.415,0.289,0.826,0.446,1.234c0.207,0.536,0.428,1.065,0.663,1.587c0.319,0.71,0.656,1.41,1.024,2.091
		c0.076,0.14,0.157,0.276,0.234,0.415c0.798,1.425,1.702,2.781,2.701,4.061c0.304,0.39,0.617,0.772,0.938,1.147
		c1.151,1.343,2.408,2.591,3.764,3.727c0.613,0.513,1.247,1.001,1.898,1.468c0.773,0.555,1.57,1.077,2.393,1.563
		c0.471,0.278,0.95,0.543,1.436,0.798c0.724,0.379,1.461,0.735,2.216,1.058c0.212,0.091,0.428,0.175,0.643,0.261
		c3.21,1.293,6.674,2.089,10.302,2.273C30.899,463.986,31.448,464,32,464h400c1.105,0,2.196-0.056,3.272-0.165
		c2.901-0.295,5.684-0.985,8.304-2.002c0.56-0.218,1.112-0.45,1.657-0.698c0.455-0.207,0.904-0.424,1.348-0.652
		c2.983-1.53,5.699-3.507,8.047-5.855c0.418-0.418,0.821-0.851,1.215-1.291c0.833-0.93,1.609-1.912,2.33-2.936
		c0.634-0.9,1.224-1.833,1.764-2.799c0.733-1.31,1.375-2.677,1.921-4.093c0.157-0.407,0.305-0.819,0.446-1.234
		c0.758-2.236,1.284-4.578,1.531-7.004c0.109-1.076,0.165-2.167,0.165-3.272v-8c-10.579,0-10.579,8-21.158,8
		C432.262,432,432.262,424,421.683,424z"/>
</g>
<g>
</g>
<g>
</g>
<g>
</g>
<g>
</g>
<g>
</g>
<g>
</g>
<g>
</g>
<g>
</g>
<g>
</g>
<g>
</g>
<g>
</g>
<g>
</g>
<g>
</g>
<g>
</g>
<g>
</g>
</svg>
