<?xml version="1.0" ?><!DOCTYPE svg  PUBLIC '-//W3C//DTD SVG 1.1//EN'  'http://www.w3.org/Graphics/SVG/1.1/DTD/svg11.dtd'><svg width="32px" height="32px" viewBox="0 0 32 32" style="fill-rule:evenodd;clip-rule:evenodd;stroke-linejoin:round;stroke-miterlimit:2;" version="1.1" xml:space="preserve" xmlns="http://www.w3.org/2000/svg" xmlns:serif="http://www.serif.com/" xmlns:xlink="http://www.w3.org/1999/xlink"><path d="M8.622,22.953c0.022,-0.234 0.205,-0.424 0.443,-0.45c0.253,-0.028 0.487,0.139 0.543,0.388c0.378,1.695 1.642,3.338 3.556,3.002c0.329,-0.058 0.654,-0.223 0.907,-0.438c0.778,-0.661 1.189,-1.617 1.446,-2.583c0.064,-0.243 0.299,-0.4 0.548,-0.368c0.237,0.031 0.417,0.225 0.434,0.461c0.39,1.678 1.649,3.289 3.545,2.955c0.33,-0.058 0.654,-0.223 0.907,-0.438c0.778,-0.66 1.19,-1.617 1.446,-2.583c0.059,-0.222 0.263,-0.376 0.493,-0.371c0.231,0.004 0.428,0.166 0.478,0.391c0.379,1.695 1.643,3.338 3.556,3.001c0.33,-0.058 0.654,-0.223 0.907,-0.438c0.778,-0.66 1.19,-1.617 1.446,-2.583c0.071,-0.266 0.345,-0.425 0.612,-0.355c0.267,0.071 0.426,0.345 0.355,0.612c-0.308,1.161 -0.83,2.295 -1.765,3.089c-0.385,0.326 -0.88,0.572 -1.381,0.66c-1.943,0.342 -3.43,-0.818 -4.218,-2.393c-0.307,0.655 -0.719,1.255 -1.282,1.733c-0.384,0.326 -0.88,0.572 -1.381,0.66c-1.948,0.343 -3.437,-0.825 -4.224,-2.407c-0.306,0.65 -0.717,1.245 -1.275,1.719c-0.384,0.327 -0.88,0.572 -1.381,0.661c-1.938,0.341 -3.421,-0.812 -4.211,-2.38c-0.307,0.66 -0.722,1.266 -1.288,1.747c-0.385,0.326 -0.88,0.572 -1.381,0.66c-2.479,0.436 -4.215,-1.572 -4.706,-3.768c-0.06,-0.27 0.11,-0.537 0.379,-0.597c0.27,-0.061 0.537,0.109 0.597,0.379c0.379,1.695 1.643,3.338 3.556,3.001c0.33,-0.058 0.654,-0.223 0.907,-0.438c0.764,-0.648 1.174,-1.581 1.432,-2.529Z" style="fill:#32b2ff;"/><path d="M8.622,16.953c0.022,-0.234 0.205,-0.424 0.443,-0.45c0.253,-0.028 0.487,0.139 0.543,0.388c0.378,1.695 1.642,3.338 3.556,3.002c0.329,-0.058 0.654,-0.223 0.907,-0.438c0.778,-0.661 1.189,-1.617 1.446,-2.583c0.064,-0.243 0.299,-0.4 0.548,-0.368c0.237,0.031 0.417,0.225 0.434,0.461c0.39,1.678 1.649,3.289 3.545,2.955c0.33,-0.058 0.654,-0.223 0.907,-0.438c0.778,-0.66 1.19,-1.617 1.446,-2.583c0.059,-0.222 0.263,-0.376 0.493,-0.371c0.231,0.004 0.428,0.166 0.478,0.391c0.379,1.695 1.643,3.338 3.556,3.001c0.33,-0.058 0.654,-0.223 0.907,-0.438c0.778,-0.66 1.19,-1.617 1.446,-2.583c0.071,-0.266 0.345,-0.425 0.612,-0.355c0.267,0.071 0.426,0.345 0.355,0.612c-0.308,1.161 -0.83,2.295 -1.765,3.089c-0.385,0.326 -0.88,0.572 -1.381,0.66c-1.943,0.342 -3.43,-0.818 -4.218,-2.393c-0.307,0.655 -0.719,1.255 -1.282,1.733c-0.384,0.326 -0.88,0.572 -1.381,0.66c-1.948,0.343 -3.437,-0.825 -4.224,-2.407c-0.306,0.65 -0.717,1.245 -1.275,1.719c-0.384,0.327 -0.88,0.572 -1.381,0.661c-1.938,0.341 -3.421,-0.812 -4.211,-2.38c-0.307,0.66 -0.722,1.266 -1.288,1.747c-0.385,0.326 -0.88,0.572 -1.381,0.66c-2.479,0.436 -4.215,-1.572 -4.706,-3.768c-0.06,-0.27 0.11,-0.537 0.379,-0.597c0.27,-0.061 0.537,0.109 0.597,0.379c0.379,1.695 1.643,3.338 3.556,3.001c0.33,-0.058 0.654,-0.223 0.907,-0.438c0.764,-0.648 1.174,-1.581 1.432,-2.529Z" style="fill:#32b2ff;"/><path d="M8.622,10.953c0.022,-0.234 0.205,-0.424 0.443,-0.45c0.253,-0.028 0.487,0.139 0.543,0.388c0.378,1.695 1.642,3.338 3.556,3.002c0.329,-0.058 0.654,-0.223 0.907,-0.438c0.778,-0.661 1.189,-1.617 1.446,-2.583c0.064,-0.243 0.299,-0.4 0.548,-0.368c0.237,0.031 0.417,0.225 0.434,0.461c0.39,1.678 1.649,3.289 3.545,2.955c0.33,-0.058 0.654,-0.223 0.907,-0.438c0.778,-0.66 1.19,-1.617 1.446,-2.583c0.059,-0.222 0.263,-0.376 0.493,-0.371c0.231,0.004 0.428,0.166 0.478,0.391c0.379,1.695 1.643,3.338 3.556,3.001c0.33,-0.058 0.654,-0.223 0.907,-0.438c0.778,-0.66 1.19,-1.617 1.446,-2.583c0.071,-0.266 0.345,-0.425 0.612,-0.355c0.267,0.071 0.426,0.345 0.355,0.612c-0.308,1.161 -0.83,2.295 -1.765,3.089c-0.385,0.326 -0.88,0.572 -1.381,0.66c-1.943,0.342 -3.43,-0.818 -4.218,-2.393c-0.307,0.655 -0.719,1.255 -1.282,1.733c-0.384,0.326 -0.88,0.572 -1.381,0.66c-1.948,0.343 -3.437,-0.825 -4.224,-2.407c-0.306,0.65 -0.717,1.245 -1.275,1.719c-0.384,0.327 -0.88,0.572 -1.381,0.661c-1.938,0.341 -3.421,-0.812 -4.211,-2.38c-0.307,0.66 -0.722,1.266 -1.288,1.747c-0.385,0.326 -0.88,0.572 -1.381,0.66c-2.479,0.436 -4.215,-1.572 -4.706,-3.768c-0.06,-0.27 0.11,-0.537 0.379,-0.597c0.27,-0.061 0.537,0.109 0.597,0.379c0.379,1.695 1.643,3.338 3.556,3.001c0.33,-0.058 0.654,-0.223 0.907,-0.438c0.764,-0.648 1.174,-1.581 1.432,-2.529Z" style="fill:#32b2ff;"/><path d="M8.622,4.953c0.022,-0.234 0.205,-0.424 0.443,-0.45c0.253,-0.028 0.487,0.139 0.543,0.388c0.378,1.695 1.642,3.338 3.556,3.002c0.329,-0.058 0.654,-0.223 0.907,-0.438c0.778,-0.661 1.189,-1.617 1.446,-2.583c0.064,-0.243 0.299,-0.4 0.548,-0.368c0.237,0.031 0.417,0.225 0.434,0.461c0.39,1.678 1.649,3.289 3.545,2.955c0.33,-0.058 0.654,-0.223 0.907,-0.438c0.778,-0.66 1.19,-1.617 1.446,-2.583c0.059,-0.222 0.263,-0.376 0.493,-0.371c0.231,0.004 0.428,0.166 0.478,0.391c0.379,1.695 1.643,3.338 3.556,3.001c0.33,-0.058 0.654,-0.223 0.907,-0.438c0.778,-0.66 1.19,-1.617 1.446,-2.583c0.071,-0.266 0.345,-0.425 0.612,-0.355c0.267,0.071 0.426,0.345 0.355,0.612c-0.308,1.161 -0.83,2.295 -1.765,3.089c-0.385,0.326 -0.88,0.572 -1.381,0.66c-1.943,0.342 -3.43,-0.818 -4.218,-2.393c-0.307,0.655 -0.719,1.255 -1.282,1.733c-0.384,0.326 -0.88,0.572 -1.381,0.66c-1.948,0.343 -3.437,-0.825 -4.224,-2.407c-0.306,0.65 -0.717,1.245 -1.275,1.719c-0.384,0.327 -0.88,0.572 -1.381,0.661c-1.938,0.341 -3.421,-0.812 -4.211,-2.38c-0.307,0.66 -0.722,1.266 -1.288,1.747c-0.385,0.326 -0.88,0.572 -1.381,0.66c-2.479,0.436 -4.215,-1.572 -4.706,-3.768c-0.06,-0.27 0.11,-0.537 0.379,-0.597c0.27,-0.061 0.537,0.109 0.597,0.379c0.379,1.695 1.643,3.338 3.556,3.001c0.33,-0.058 0.654,-0.223 0.907,-0.438c0.764,-0.648 1.174,-1.581 1.432,-2.529Z" style="fill:#32b2ff;"/></svg>